<svg xmlns="http://www.w3.org/2000/svg" viewBox="15 97.8 166.4 40">
<!-- SVG created with Arrow, by QuiverAI (https://quiver.ai) -->
  <style type="text/css">.cls-0 {fill:none;stroke:#a8845c;stroke-width:0.25;stroke-linecap:square;stroke-miterlimit:10;}
.cls-1 {fill:none;stroke:#a8845c;stroke-width:0.15;stroke-linecap:square;stroke-miterlimit:10;}
.cls-2 {fill:none;stroke:#a8845c;stroke-width:0.25;stroke-linecap:round;stroke-miterlimit:10;}
.cls-3 {fill:none;stroke:#a8845c;stroke-width:0.2;stroke-linecap:round;stroke-miterlimit:10;}</style>
  <path class="cls-2" pathLength="1" d="m23.6 121.8c9.9-1.7 22.4-7.3 28.3-10.1 7.2-3.4 8.9-4.7 10.1-4.6 2 0.1 5.3 2.7 6.7 3.1 1.6 0.5 2.3-0.5 3.8 0.2s3.4 2.8 4.5 2.9c1 0.2 1.5-0.9 3.1-0.5 1.9 0.6 6.7 3.8 13.6 6 6.4 2.2 14.8 4.3 25.3 4.8"/>
  <path class="cls-3" pathLength="1" d="m85.9 128.8c10.2 1.9 22.1 2.9 37 2.5"/>
  <path class="cls-0" pathLength="1" d="m26.1 127.2c18.4 0.8 27.3-3.7 37.7-6.5 11.1-2.9 15.2 0.2 25 3 12 3.6 21.4 5.2 32.4 4 7.1-0.7 14.3-3.4 18.7-4.7 11.1-3.7 14.6-6.6 26.5-5.6l8.2 1.6 0.4 0.1-0.4-0.1"/>
  <path class="cls-0" pathLength="1" d="m111.7 126.7c10.7-0.4 16.9-2.7 27.7-6.1 8.6-2.8 13.1-4.3 20.8-3.9 4.1 0.4 9.3 1.5 21.1 1.8"/>
  <path class="cls-1" pathLength="1" d="m96.5 116.3c7.9-1.1 13.2-5.3 15.9-6.5 1.5-0.6 2.1 0.2 3.8-0.5 1.8-0.7 6.2-3.6 7.5-4.4 2.3-1.2 2.9-0.6 4.7 0.5 3.3 2.1 2.9 2.3 5.2 1.8 1.5-0.1 1.9 0.2 3.3 1 3.3 2.1 6.5 4.4 8.4 5 2.2 0.9 2.6-0.4 3.9-0.3 1.3 0 1.9 1.1 3.7 1.2 2.1 0.1 3.8-1.3 6.2-1.4 3.5-0.1 9.8 3.6 22.2 5.7"/>
</svg>
