<svg xmlns="http://www.w3.org/2000/svg" viewBox="15 97.8 166.4 40">
<!-- SVG created with Arrow, by QuiverAI (https://quiver.ai) -->
  <style type="text/css">.cls-0 {fill:none;stroke:#a8845c;stroke-width:0.25;stroke-linecap:square;stroke-miterlimit:10;}
.cls-1 {fill:none;stroke:#a8845c;stroke-width:0.15;stroke-linecap:square;stroke-miterlimit:10;}
.cls-2 {fill:none;stroke:#a8845c;stroke-width:0.25;stroke-linecap:round;stroke-miterlimit:10;}
.cls-3 {fill:none;stroke:#a8845c;stroke-width:0.2;stroke-linecap:round;stroke-miterlimit:10;}</style>
  <path class="cls-0" pathLength="1" d="m15 119c6.2-0.3 12.8-3 15.7-4 3.5-1 4.4-0.4 8.1 0.8"/>
  <path class="cls-0" pathLength="1" d="m26.1 127.2c18.4 0.8 27.3-3.7 37.7-6.5 11.1-2.9 15.2 0.2 25 3 12 3.6 21.4 5.2 32.4 4 7.1-0.7 14.3-3.4 18.7-4.7 11.1-3.7 14.6-6.6 26.5-5.6l8.2 1.6 0.4 0.1-0.4-0.1"/>
  <path class="cls-2" pathLength="1" d="m87.6 115.5c5.5-0.8 11.1-3.8 12.7-4.2 1.7-0.6 3.1-0.1 5.4 0.7"/>
  <path class="cls-1" pathLength="1" d="m96.5 116.3c7.9-1.1 13.2-5.3 15.9-6.5 1.5-0.6 2.1 0.2 3.8-0.5 1.8-0.7 6.2-3.6 7.5-4.4 2.3-1.2 2.9-0.6 4.7 0.5 3.3 2.1 2.9 2.3 5.2 1.8 1.5-0.1 1.9 0.2 3.3 1 3.3 2.1 6.5 4.4 8.4 5 2.2 0.9 2.6-0.4 3.9-0.3 1.3 0 1.9 1.1 3.7 1.2 2.1 0.1 3.8-1.3 6.2-1.4 3.5-0.1 9.8 3.6 22.2 5.7"/>
  <path class="cls-3" pathLength="1" d="m111.8 126.7c8.1-0.2 15.5-2.3 23-4.5 6.3-2 9.5-3.1 14.1 0.4"/>
</svg>
